<svg width="64" height="64" viewBox="0 0 64 64" fill="none" xmlns="http://www.w3.org/2000/svg">
    <circle cx="32" cy="32" r="31" fill="#09090b" stroke="#27272a" stroke-width="2"/>
    
    <path d="M32 58C32 58 22 52 20 44C18 36 22 30 22 30L26 34L32 38L38 34L42 30C42 30 46 36 44 44C42 52 32 58 32 58Z" fill="#27272a"/>
    
    <path d="M32 10C28 10 24 14 22 18C20 22 21 26 23 28L26 32L32 35L38 32L41 28C43 26 44 22 42 18C40 14 36 10 32 10Z" fill="#52525b"/>
    <path d="M16 12C16 12 20 18 22 24L18 22C18 22 14 16 16 12Z" fill="#3f3f46"/> <path d="M48 12C48 12 44 18 42 24L46 22C46 22 50 16 48 12Z" fill="#3f3f46"/> <path d="M32 14C36 14 39 17 40 21C41 25 40 28 38 30L32 33L26 30C24 28 23 25 24 21C25 17 28 14 32 14Z" fill="#d4d4d8"/>
    <path d="M24 20C22 16 18 10 14 8C12 14 16 20 20 24L24 20Z" fill="#e4e4e7"/>
    <path d="M40 20C42 16 46 10 50 8C52 14 48 20 44 24L40 20Z" fill="#e4e4e7"/>
    <path d="M17 12C18 14 19 16 21 18" stroke="#a1a1aa" stroke-width="1" stroke-linecap="round"/>
    <path d="M15 16C16 18 18 20 19 22" stroke="#a1a1aa" stroke-width="1" stroke-linecap="round"/>
    <path d="M47 12C46 14 45 16 43 18" stroke="#a1a1aa" stroke-width="1" stroke-linecap="round"/>
    <path d="M49 16C48 18 46 20 45 22" stroke="#a1a1aa" stroke-width="1" stroke-linecap="round"/>

    <path d="M27 23C27 23 29 24 32 24C35 24 37 23 37 23" stroke="#18181b" stroke-width="1.5" stroke-linecap="round"/> <circle cx="28" cy="26" r="1.5" fill="#09090b"/> <circle cx="36" cy="26" r="1.5" fill="#09090b"/> <path d="M31 30L32 31L33 30" stroke="#18181b" stroke-width="1.5" stroke-linecap="round" stroke-linejoin="round"/> <path d="M30 33C30 33 32 34 34 33" stroke="#18181b" stroke-width="1" stroke-linecap="round"/> <path d="M32 38L32 42M28 36L28 40M36 36L36 40" stroke="#d4d4d8" stroke-width="1.5" stroke-linecap="round"/>
    <path d="M32 54C32 54 30 50 28 46M32 54C32 54 34 50 36 46" stroke="#71717a" stroke-width="1" stroke-linecap="round"/>
</svg>